:SAMPLES-PER-SECOND 30
:FULLY-SPECIFIED
:DEGREES
222
root  -51.3039 24.6495 44.5504 9.83597 63.9843 -12.9522
RightUpLeg  -49.1722 -2.42719 -27.4035
RightLeg  60.8677 6.60692 10.0315
RightFoot  -17.5271 -0.327787 -1.7486
RightToes  -69.4683 -0.485519 -0.41513
Spine  20.4001 -1.75193 6.81567
Spine1  35.663 -2.05891 6.98166
HEad  -0.0397887 13.2856 -10.2853
LeftShoulder1  0 -2.42657e-020 -4.95415e-022
LeftArm  -26.0843 -26.7941 -82.2223
LeftForeArm  15.5426 -31.5823 -6.21655
LeftHand  -0.103952 -6.43312 1.4812
RightShoulder  0 2.42657e-020 1.07489e-018
RightArm  -61.4259 32.582 57.6503
RightForeArm  13.3391 41.5644 9.00047
RightHand  1.59766 23.4938 8.04426
LeftUpLeg  -72.8244 -4.24516 32.5979
LeftLeg  79.2496 0.285675 1.08304
LeftFoot  -10.1649 -0.234624 -2.63759
LeftToes  -44.0193 1.71452e-006 7.46813e-008
223
root  -50.4918 25.813 43.8269 10.5713 62.7943 -11.5604
RightUpLeg  -46.3432 1.78224 -29.0247
RightLeg  55.835 4.64974 5.89073
RightFoot  -9.40722 0.00651267 0.456737
RightToes  -66.4232 -0.455972 -0.411335
Spine  19.391 -1.66613 5.78668
Spine1  34.063 -1.98045 5.88182
HEad  2.59203 13.4037 -9.90151
LeftShoulder1  0 -2.42657e-020 -4.95415e-022
LeftArm  -26.0791 -23.2676 -84.1126
LeftForeArm  16.4715 -31.8877 -6.29198
LeftHand  -0.0764286 -6.23438 1.03454
RightShoulder  0 2.42657e-020 1.07489e-018
RightArm  -59.2042 32.1366 58.5312
RightForeArm  22.5613 47.3383 11.0528
RightHand  -0.0199558 23.4658 0.273999
LeftUpLeg  -68.3298 -4.84766 29.0326
LeftLeg  74.7364 0.591244 1.7017
LeftFoot  -11.0641 -0.222686 -2.2989
LeftToes  -41.5855 1.71452e-006 7.46813e-008
224
root  -49.6986 27.0188 42.9757 11.1983 62.3983 -10.7253
RightUpLeg  -44.6673 6.40356 -29.0466
RightLeg  53.1036 -3.1295 -3.70249
RightFoot  -0.899936 0.00918315 1.548
RightToes  -58.3443 -0.378982 -0.393727
Spine  18.5761 -1.57564 5.32507
Spine1  32.8841 -1.76603 5.29342
HEad  4.40191 13.849 -10.8017
LeftShoulder1  0 -2.42657e-020 -4.95415e-022
LeftArm  -26.6894 -20.3945 -87.0747
LeftForeArm  17.4974 -32.6471 -6.48118
LeftHand  -0.0985992 -6.46489 1.37722
RightShoulder  0 2.42657e-020 1.07489e-018
RightArm  -55.6909 33.3128 57.6364
RightForeArm  33.9492 52.6972 13.4196
RightHand  -1.67545 24.5562 -7.31929
LeftUpLeg  -64.7171 -6.24289 25.7796
LeftLeg  69.8183 1.38842 3.11941
LeftFoot  -11.0901 -0.2074 -2.13609
LeftToes  -37.9503 1.71452e-006 7.46813e-008
225
root  -49.0612 28.0842 42.1256 12.928 62.5044 -9.21906
RightUpLeg  -44.1639 5.78969 -25.9956
RightLeg  53.436 -9.86868 -11.4928
RightFoot  0.225756 -0.00171552 1.24446
RightToes  -33.7809 -0.170804 -0.277366
Spine  17.7561 -1.40211 4.80017
Spine1  31.5083 -1.32234 4.59363
HEad  5.91468 13.1071 -9.36535
LeftShoulder1  0 -2.42657e-020 -4.95415e-022
LeftArm  -27.2539 -17.9879 -89.6333
LeftForeArm  17.3446 -33.6109 -6.72562
LeftHand  -0.104342 -6.27181 1.53609
RightShoulder  0 2.42657e-020 1.07489e-018
RightArm  -51.5933 36.254 57.0563
RightForeArm  44.5949 57.6131 16.1919
RightHand  -2.32998 25.3628 -9.96038
LeftUpLeg  -62.4589 -7.42447 22.7827
LeftLeg  65.1833 1.94818 3.57012
LeftFoot  -9.63871 -0.147694 -1.75162
LeftToes  -35.693 1.71452e-006 7.46813e-008
226
root  -48.5308 28.7896 41.3622 15.9717 62.23 -6.07214
RightUpLeg  -44.9173 0.0774336 -20.9954
RightLeg  54.7277 -6.19193 -7.65649
RightFoot  -4.90793 0.0698335 2.00722
RightToes  -38.1112 -0.203573 -0.304206
Spine  17.2768 -0.58604 3.85178
Spine1  30.4736 0.577934 3.24349
HEad  7.72825 10.8041 -6.26346
LeftShoulder1  0 -2.42657e-020 -4.95415e-022
LeftArm  -26.6362 -16.7025 -91.3165
LeftForeArm  17.9271 -34.2054 -6.87946
LeftHand  -0.105648 -6.54543 1.47903
RightShoulder  0 2.42657e-020 1.07489e-018
RightArm  -46.2907 39.2445 56.2896
RightForeArm  57.942 59.5524 17.4886
RightHand  -2.97622 22.2606 -14.678
LeftUpLeg  -60.7889 -7.06185 18.8
LeftLeg  61.9368 1.78351 2.8685
LeftFoot  -8.16999 -0.0875445 -1.22577
LeftToes  -34.2084 1.71452e-006 7.46813e-008
227
root  -48.0374 29.1193 40.6577 19.1806 61.0745 -2.23283
RightUpLeg  -47.1973 -6.67097 -15.487
RightLeg  58.8193 -0.348576 -0.581861
RightFoot  -9.12695 0.0720418 1.28022
RightToes  -47.0171 -0.276823 -0.351234
Spine  17.7388 1.06056 2.81827
Spine1  30.9315 4.56952 1.46776
HEad  7.90381 7.10182 -2.65572
LeftShoulder1  0 -2.42657e-020 -4.95415e-022
LeftArm  -24.0847 -17.3941 -92.8288
LeftForeArm  18.6289 -34.4949 -6.95531
LeftHand  -0.151231 -6.30532 2.37782
RightShoulder  0 2.42657e-020 1.07489e-018
RightArm  -45.9639 42.9333 53.6965
RightForeArm  60.3202 56.1147 15.2236
RightHand  -3.98422 23.9177 -18.2864
LeftUpLeg  -59.8892 -4.37627 13.9011
LeftLeg  61.3205 0.267976 0.411822
LeftFoot  -6.78141 -0.0331084 -0.558812
LeftToes  -34.4693 1.71452e-006 7.46813e-008
228
root  -47.504 29.087 39.9417 22.5708 59.8364 2.14874
RightUpLeg  -48.9352 -9.79689 -13.3156
RightLeg  63.8168 1.41792 2.35556
RightFoot  -12.5693 0.0407576 0.747675
RightToes  -46.3353 -0.270966 -0.348042
Spine  18.8184 2.95539 1.86051
Spine1  32.266 9.11433 0.0850974
HEad  7.60693 1.28831 0.445148
LeftShoulder1  0 -2.42657e-020 -4.95415e-022
LeftArm  -20.8408 -19.5524 -94.6606
LeftForeArm  18.7798 -34.1677 -6.86992
LeftHand  -0.143387 -6.47561 2.1666
RightShoulder  0 2.42657e-020 1.07489e-018
RightArm  -47.7124 45.6384 49.0022
RightForeArm  61.3809 49.8931 12.0567
RightHand  -4.26987 23.4876 -19.9679
LeftUpLeg  -60.9264 -2.72971 10.7487
LeftLeg  64.2052 -3.27736 -5.78772
LeftFoot  -4.2354 0.00638443 0.172647
LeftToes  -39.2363 1.71452e-006 7.46813e-008
